#tb 0: 1/10
#media_type 0: video
#codec_id 0: gif
#dimensions 0: 217x217
#sar 0: 0/1
0,          0,          0,        1,     1341, 0xaa85adb1
0,          1,          1,        1,      236, 0xa46f676e, F=0x0
0,          2,          2,        1,      186, 0xd99b4ec2, F=0x0
0,          3,          3,        1,      208, 0xb9be5007, F=0x0
0,          4,          4,        1,      282, 0xe43d8422, F=0x0
0,          5,          5,        1,      209, 0xda215145, F=0x0
0,          6,          6,        1,      225, 0xc6375b19, F=0x0
0,          7,          7,        1,      204, 0x467a54c1, F=0x0
0,          8,          8,        1,      181, 0x1c0e4dae, F=0x0
0,          9,          9,        1,      200, 0xc55e53c1, F=0x0
0,         10,         10,        1,      184, 0x87644454, F=0x0
0,         11,         11,        1,      191, 0x3847484a, F=0x0
0,         12,         12,        1,      290, 0x9ce37f1f, F=0x0
0,         13,         13,        1,      153, 0x7ab03afc, F=0x0
0,         14,         14,        1,      175, 0x64bc4621, F=0x0
0,         15,         15,        1,      187, 0x9284451d, F=0x0
0,         16,         16,        1,      418, 0x7b18c8a5, F=0x0
0,         17,         17,        1,      200, 0xf8e5527f, F=0x0
0,         18,         18,        1,      347, 0xbc6494eb, F=0x0
0,         19,         19,        1,      176, 0x8d1842e5, F=0x0
0,         20,         20,        1,      294, 0x52fe8678, F=0x0
0,         21,         21,        1,      166, 0x614142a1, F=0x0
0,         22,         22,        1,      306, 0xafe8850d, F=0x0
0,         23,         23,        1,      180, 0xa2cc44a0, F=0x0
0,         24,         24,        1,      207, 0x91e25233, F=0x0
0,         25,         25,        1,      204, 0x0f174cb7, F=0x0
0,         26,         26,        1,      259, 0x629071c3, F=0x0
0,         27,         27,        1,      181, 0x950e4a15, F=0x0
0,         28,         28,        1,      152, 0x77023d8a, F=0x0
0,         29,         29,        1,      194, 0x890b4d08, F=0x0
0,         30,         30,        1,      159, 0xaa5a397d, F=0x0
0,         31,         31,        1,      162, 0x8ae73c95, F=0x0
0,         32,         32,        1,      178, 0x7fba4974, F=0x0
0,         33,         33,        1,      187, 0x41fd52cc, F=0x0
0,         34,         34,        1,      336, 0xd8139332, F=0x0
0,         35,         35,        1,      184, 0x61b3484a, F=0x0
0,         36,         36,        1,      227, 0x8be2607e, F=0x0
0,         37,         37,        1,      182, 0x9bc84478, F=0x0
0,         38,         38,        1,      162, 0x33423e3c, F=0x0
0,         39,         39,        1,      187, 0x62fd4805, F=0x0
0,         40,         40,        1,      503, 0xfc0ce5c8, F=0x0
0,         41,         41,        1,      167, 0x40bd40d7, F=0x0
0,         42,         42,        1,      289, 0xe5ad805c, F=0x0
0,         43,         43,        1,      194, 0xc0174c24, F=0x0
0,         44,         44,        1,      285, 0x48f38060, F=0x0
0,         45,         45,        1,      199, 0x62bd52dc, F=0x0
0,         46,         46,        1,      197, 0xcc1f4d1d, F=0x0
0,         47,         47,        1,      203, 0xa0cb4c90, F=0x0
0,         48,         48,        1,      208, 0x460155cd, F=0x0
0,         49,         49,        1,     1198, 0x0b795bb1, F=0x0
0,         50,         50,        1,      175, 0x36cc4a76, F=0x0
0,         51,         51,        1,      740, 0xeb6f68b9, F=0x0
0,         52,         52,        1,      180, 0xa22544ba, F=0x0
0,         53,         53,        1,      238, 0x08ff6b12, F=0x0
0,         54,         54,        1,      198, 0x3d4d50dd, F=0x0
0,         55,         55,        1,      196, 0xbef74ccd, F=0x0
0,         56,         56,        1,      224, 0x47c05ea9, F=0x0
0,         57,         57,        1,      765, 0xb89e6f01, F=0x0
0,         58,         58,        1,      149, 0x26bb3969, F=0x0
0,         59,         59,        1,      479, 0xcdd6d6bf, F=0x0
0,         60,         60,        1,      179, 0x537948eb, F=0x0
0,         61,         61,        1,      217, 0x6b9b5b06, F=0x0
0,         62,         62,        1,      190, 0x56b54a3a, F=0x0
0,         63,         63,        1,      155, 0x487439ef, F=0x0
0,         64,         64,        1,      167, 0x1bb947ba, F=0x0
0,         65,         65,        1,      649, 0xb44a3058, F=0x0
0,         66,         66,        1,      196, 0x66ae5688, F=0x0
0,         67,         67,        1,      427, 0x8b0bd38d, F=0x0
0,         68,         68,        1,      175, 0xbb9d4294, F=0x0
0,         69,         69,        1,      284, 0x9f768221, F=0x0
0,         70,         70,        1,      131, 0x612d2e14, F=0x0
0,         71,         71,        1,      256, 0x701a69b4, F=0x0
0,         72,         72,        1,      186, 0xf7114a80, F=0x0
0,         73,         73,        1,      190, 0x53144c4d, F=0x0
0,         74,         74,        1,      216, 0xc67b53e5, F=0x0
0,         75,         75,        1,      154, 0xc04e39ba, F=0x0
0,         76,         76,        1,      113, 0x4800284b, F=0x0
0,         77,         77,        1,      402, 0xee43b0dd, F=0x0
0,         78,         78,        1,      198, 0x55e451cc, F=0x0
0,         79,         79,        1,      466, 0xb3c8cff3, F=0x0
0,         80,         80,        1,      322, 0x5ade8d02, F=0x0
0,         81,         81,        1,      387, 0x72edb2f7, F=0x0
0,         82,         82,        1,      158, 0x12a5402c, F=0x0
0,         83,         83,        1,      278, 0xd6727a4a, F=0x0
0,         84,         84,        1,      190, 0x58205087, F=0x0
0,         85,         85,        1,      175, 0x9a58432a, F=0x0
0,         86,         86,        1,      206, 0x85954c9e, F=0x0
0,         87,         87,        1,      379, 0x4f1db56a, F=0x0
0,         88,         88,        1,      202, 0x19b05154, F=0x0
0,         89,         89,        1,      225, 0xf4166005, F=0x0
0,         90,         90,        1,      175, 0x44414761, F=0x0
0,         91,         91,        1,      235, 0xe01c603f, F=0x0
0,         92,         92,        1,      185, 0xfab74905, F=0x0
0,         93,         93,        1,      182, 0x9c5f4ae7, F=0x0
0,         94,         94,        1,      114, 0xe0542abd, F=0x0
0,         95,         95,        1,      176, 0x6e274c2e, F=0x0
0,         96,         96,        1,      214, 0x44725ac3, F=0x0
0,         97,         97,        1,      182, 0x54e9482e, F=0x0
0,         98,         98,        1,      195, 0x6231525e, F=0x0
0,         99,         99,        1,      303, 0xf63c84a1, F=0x0
0,        100,        100,        1,      191, 0x4aa84e6f, F=0x0
0,        101,        101,        1,      177, 0xfd82496d, F=0x0
0,        102,        102,        1,      172, 0x13d041cb, F=0x0
0,        103,        103,        1,      179, 0x89f54866, F=0x0
0,        104,        104,        1,      188, 0xf39d4d8d, F=0x0
0,        105,        105,        1,      177, 0x4d0e4882, F=0x0
0,        106,        106,        1,      215, 0xca7b5a6f, F=0x0
0,        107,        107,        1,      339, 0x1dd598fe, F=0x0
0,        108,        108,        1,      189, 0xe2d94497, F=0x0
0,        109,        109,        1,      209, 0x682356be, F=0x0
0,        110,        110,        1,      205, 0xa5af51b7, F=0x0
0,        111,        111,        1,      185, 0xa1224e22, F=0x0
0,        112,        112,        1,      211, 0x09a95a00, F=0x0
0,        113,        113,        1,      178, 0x31ab47cc, F=0x0
0,        114,        114,        1,      195, 0x960f4c9c, F=0x0
0,        115,        115,        1,      116, 0x8f8b2da3, F=0x0
0,        116,        116,        1,      116, 0xf30c2b3d, F=0x0
0,        117,        117,        1,      427, 0xa3dcc81b, F=0x0
0,        118,        118,        1,      182, 0xce37489b, F=0x0
0,        119,        119,        1,      267, 0x516c6f3e, F=0x0
0,        120,        120,        1,      191, 0xff5c4af7, F=0x0
0,        121,        121,        1,      195, 0x49cd5178, F=0x0
0,        122,        122,        1,      755, 0xb9b4608d, F=0x0
0,        123,        123,        1,      179, 0x6d0c4600, F=0x0
0,        124,        124,        1,      522, 0xffe5f236, F=0x0
0,        125,        125,        1,      171, 0xea4c40b8, F=0x0
0,        126,        126,        1,      379, 0xbf2fa98b, F=0x0
0,        127,        127,        1,      539, 0xace2f7b5, F=0x0
0,        128,        128,        1,      199, 0xe0534e3d, F=0x0
0,        129,        129,        1,      458, 0x2b54d13e, F=0x0
0,        130,        130,        1,      177, 0x6ff04b91, F=0x0
0,        131,        131,        1,      299, 0x51d1893e, F=0x0
0,        132,        132,        1,      333, 0x5cba941f, F=0x0
0,        133,        133,        1,      179, 0x2381453b, F=0x0
0,        134,        134,        1,      263, 0xac907176, F=0x0
0,        135,        135,        1,      177, 0xb87546d9, F=0x0
0,        136,        136,        1,      184, 0x761c4765, F=0x0
0,        137,        137,        1,      433, 0x55f0c2d6, F=0x0
0,        138,        138,        1,     1138, 0x3b7137a0, F=0x0
0,        139,        139,        1,      863, 0x5afd9dae, F=0x0
0,        140,        140,        1,      328, 0x4537973f, F=0x0
0,        141,        141,        1,      222, 0xadb859e4, F=0x0
0,        142,        142,        1,      171, 0x7ce844b6, F=0x0
0,        143,        143,        1,      222, 0xa5815a1f, F=0x0
0,        144,        144,        1,      738, 0x3fe75c6a, F=0x0
0,        145,        145,        1,      444, 0x320fd03e, F=0x0
0,        146,        146,        1,      267, 0x288273f3, F=0x0
0,        147,        147,        1,      187, 0x07594c67, F=0x0
0,        148,        148,        1,      186, 0xbd1c50de, F=0x0
0,        149,        149,        1,      196, 0xf3e14fdb, F=0x0
0,        150,        150,        1,      589, 0x127314a0, F=0x0
0,        151,        151,        1,      188, 0x22d74d85, F=0x0
0,        152,        152,        1,      339, 0xcadaa1b6, F=0x0
0,        153,        153,        1,      179, 0x6a1843a7, F=0x0
0,        154,        154,        1,      294, 0xe04184fa, F=0x0
0,        155,        155,        1,      291, 0x4b018587, F=0x0
0,        156,        156,        1,      144, 0x470f3737, F=0x0
0,        157,        157,        1,      182, 0x3b994dcd, F=0x0
0,        158,        158,        1,      195, 0x7f884fd3, F=0x0
0,        159,        159,        1,      268, 0xb6097b3b, F=0x0
0,        160,        160,        1,      526, 0x40e0fd27, F=0x0
0,        161,        161,        1,      372, 0x9dffaa6d, F=0x0
0,        162,        162,        1,      171, 0xc06841eb, F=0x0
0,        163,        163,        1,      344, 0xc47da473, F=0x0
0,        164,        164,        1,      159, 0xacf64002, F=0x0
0,        165,        165,        1,      391, 0x520cad43, F=0x0
0,        166,        166,        1,      180, 0x05c04cac, F=0x0
0,        167,        167,        1,      303, 0x748493c3, F=0x0
0,        168,        168,        1,      180, 0x3fc54928, F=0x0
0,        169,        169,        1,      269, 0xcd227967, F=0x0
0,        170,        170,        1,      199, 0x3a3053e8, F=0x0
0,        171,        171,        1,      287, 0x3c37840b, F=0x0
0,        172,        172,        1,      217, 0xabd063fc, F=0x0
